<svg xmlns="http://www.w3.org/2000/svg" xmlns:xlink="http://www.w3.org/1999/xlink" width="1500" zoomAndPan="magnify" viewBox="0 0 1125 899.99999" height="1200" preserveAspectRatio="xMidYMid meet" version="1.0"><defs><clipPath id="4ff8daf219"><path d="M 254.355469 69.167969 L 870.523438 69.167969 L 870.523438 771.90625 L 254.355469 771.90625 Z M 254.355469 69.167969 " clip-rule="nonzero"/></clipPath></defs><g clip-path="url(#4ff8daf219)"><path fill="#000000" d="M 833.433594 574.277344 C 835.484375 567.511719 838.503906 551.691406 830.527344 552.191406 C 824.15625 552.59375 827.125 562.402344 825.882812 569.046875 C 817 565.53125 810.011719 560.125 801.480469 556.261719 C 801.863281 549.660156 809.351562 533.742188 801.480469 532.429688 C 793.964844 531.179688 795.371094 544.769531 793.34375 551.03125 C 788.3125 549.277344 784.597656 546.222656 779.984375 544.054688 C 782.875 533.390625 785.835938 522.789062 788.699219 512.085938 C 788.511719 517 798.800781 532.390625 802.0625 522.546875 C 804.480469 515.253906 793.679688 507.003906 793.34375 496.972656 C 792.988281 486.332031 799.957031 482.84375 799.15625 474.886719 C 804.109375 477.078125 802.835938 484.992188 809.035156 484.765625 C 819.785156 484.382812 806.363281 466.988281 803.21875 462.679688 C 803.867188 458.867188 804.941406 455.488281 806.125 452.21875 C 806.527344 449.707031 808.699219 454.386719 811.355469 453.378906 C 812.910156 452.996094 813.566406 451.714844 814.84375 451.054688 C 815.382812 445.089844 812.644531 442.40625 809.617188 440.011719 C 810.890625 435.285156 812.074219 430.464844 813.679688 426.0625 C 814.3125 430.3125 822.371094 436.878906 824.71875 430.128906 C 826.695312 424.453125 818.59375 418.589844 817.746094 413.855469 C 816.542969 407.097656 821.628906 405.160156 820.652344 399.902344 C 822.847656 401.894531 823.183594 404.753906 826.460938 404.554688 C 834.929688 404.039062 827.335938 389.0625 825.300781 384.792969 C 826.839844 379.355469 828.632812 374.175781 829.945312 368.515625 C 830.335938 372.753906 839.671875 385.777344 842.726562 376.652344 C 844.75 370.625 835.480469 360.972656 834.59375 355.726562 C 835.726562 348.722656 837.765625 342.625 839.242188 335.96875 C 842.46875 338.398438 843.640625 348.074219 849.699219 344.105469 C 855.996094 339.980469 845.410156 327.90625 843.890625 322.601562 C 845.003906 318.289062 846.039062 313.894531 846.796875 309.230469 C 849.859375 309.328125 853.445312 309.222656 854.347656 305.742188 C 855.085938 302.882812 851.617188 299.714844 851.441406 296.441406 C 851.023438 288.691406 857.199219 282.5 857.253906 276.097656 C 859.109375 379.644531 859.382812 484.769531 860.738281 588.808594 C 851.203125 584.398438 843.242188 578.417969 833.433594 574.277344 Z M 587.097656 749.234375 C 592.632812 740.820312 602.96875 732.179688 610.339844 723.660156 C 617.265625 721.398438 638.421875 718.664062 637.644531 710.875 C 637.027344 704.675781 629.257812 707.292969 624.863281 709.710938 C 624.078125 708.066406 626.882812 706.023438 628.347656 704.480469 C 633.25 699.3125 639.625 692.808594 644.617188 687.621094 C 654.199219 692.765625 669.273438 680.34375 654.492188 678.324219 C 653.429688 676.980469 656.109375 674.992188 657.394531 673.675781 C 661.539062 669.441406 667.363281 663.652344 671.339844 659.144531 C 681.160156 665.148438 694.503906 653.425781 679.476562 651.003906 C 685.296875 643.847656 692.304688 637.878906 698.066406 630.660156 C 700.246094 631.960938 704.585938 631.199219 706.199219 630.078125 C 707.71875 627.074219 706.683594 625.46875 705.617188 622.523438 C 711.992188 617.855469 715.75 610.574219 722.46875 606.25 C 730.796875 616.761719 741.746094 603.113281 728.277344 599.273438 C 738.261719 588.53125 748.40625 577.949219 758.484375 567.304688 C 762.09375 571.394531 771.199219 577.226562 771.847656 569.046875 C 772.210938 564.496094 768.160156 563.746094 765.457031 560.910156 C 767.625 557.265625 770.414062 554.242188 773.59375 551.609375 C 779.449219 553.691406 783.824219 557.261719 789.28125 559.75 C 789.347656 563.648438 773.921875 580.738281 785.792969 580.671875 C 792.195312 580.636719 793.820312 569.675781 797.414062 564.980469 C 806.699219 568.671875 813.96875 574.382812 822.972656 578.351562 C 820.425781 581.15625 813.128906 589.101562 819.488281 591.714844 C 825.347656 594.125 827.539062 586.101562 831.109375 583.578125 C 840.332031 587.722656 848.175781 593.246094 857.253906 597.527344 C 767.660156 648.558594 676.816406 698.335938 587.097656 749.234375 Z M 562.117188 760.28125 C 497.480469 690.289062 429.101562 620.945312 365.746094 551.609375 C 368.847656 552.757812 373.035156 550.269531 376.785156 551.03125 C 381.175781 551.921875 386.332031 559.210938 390.148438 563.234375 C 398.449219 571.984375 406.019531 580.171875 414.550781 589.390625 C 417.398438 592.472656 429.804688 608.648438 431.976562 597.527344 C 432.808594 593.269531 424.175781 586.371094 422.683594 584.742188 C 412.027344 573.144531 401.761719 562.394531 391.890625 551.03125 C 401.1875 551.03125 410.484375 551.03125 419.777344 551.03125 C 423.882812 555.292969 429.332031 571.246094 436.046875 570.792969 C 446.28125 570.101562 433.675781 554.777344 430.816406 551.609375 C 440.113281 550.257812 451.925781 551.414062 462.1875 551.03125 C 465.980469 556.429688 467.351562 562.164062 470.90625 569.628906 C 473.097656 574.238281 476.886719 585.328125 481.941406 585.324219 C 491.484375 585.3125 482.804688 571.453125 480.199219 566.144531 C 477.238281 560.105469 474.539062 555.703125 473.226562 551.03125 C 483.492188 551.03125 493.753906 551.03125 504.015625 551.03125 C 505.382812 557.816406 504.210938 568.671875 510.40625 568.46875 C 517.066406 568.246094 514.132812 557.867188 513.3125 551.03125 C 521.835938 551.03125 530.359375 551.03125 538.878906 551.03125 C 542.773438 558.964844 536.644531 579.921875 545.269531 580.671875 C 555.117188 581.535156 547.597656 559.734375 548.753906 551.03125 C 557.292969 551.402344 567.324219 550.277344 574.902344 551.609375 C 576.746094 558.171875 572.375 566.613281 579.546875 566.722656 C 585.320312 566.8125 585.152344 558.082031 584.191406 551.03125 C 594.070312 551.03125 603.949219 551.03125 613.824219 551.03125 C 615.789062 556.371094 598.996094 574.074219 608.59375 577.769531 C 614.980469 580.222656 621.84375 559.300781 623.121094 551.03125 C 632.03125 551.03125 640.933594 551.03125 649.84375 551.03125 C 647.542969 555.421875 645.207031 560.046875 641.128906 566.144531 C 638.648438 569.84375 627.820312 581.800781 636.484375 583.578125 C 642.359375 584.785156 647.761719 573.167969 650.425781 569.046875 C 654.875 562.164062 657.394531 557.550781 660.300781 551.03125 C 670.761719 551.03125 681.214844 551.03125 691.675781 551.03125 C 687.234375 558.355469 679.195312 567.273438 672.503906 575.441406 C 670.113281 578.359375 662.890625 586.152344 669.597656 588.230469 C 675.871094 590.171875 685.789062 574.339844 688.1875 571.375 C 694.289062 563.839844 698.617188 558.160156 703.292969 551.03125 C 712.785156 551.03125 722.269531 551.03125 731.757812 551.03125 C 732.59375 552.765625 730.089844 554.304688 728.859375 555.679688 C 721.75 563.59375 714.15625 571.757812 706.199219 580.671875 C 704.769531 582.277344 693.246094 592.589844 702.132812 594.625 C 707.121094 595.765625 711.972656 587.414062 714.332031 584.742188 C 724.886719 572.816406 735.890625 561.5625 746.867188 551.03125 C 751.125 551.03125 755.386719 551.03125 759.648438 551.03125 C 761.03125 552.929688 756.84375 554.8125 755 556.84375 C 692.964844 625.191406 625.710938 692.976562 562.117188 760.28125 Z M 268.140625 598.109375 C 273.523438 595.316406 281.046875 600.792969 287.3125 603.34375 C 293.835938 605.992188 300.695312 610.527344 307.648438 607.992188 C 311.042969 597.5625 288.589844 595.328125 281.503906 591.140625 C 284.378906 587.851562 287.105469 587.425781 290.800781 585.324219 C 293.191406 583.964844 296.769531 580.328125 300.675781 580.09375 C 305.5 579.796875 311.488281 583.617188 315.78125 585.324219 C 320.847656 587.335938 333.703125 595.03125 334.375 586.488281 C 334.988281 578.691406 315.6875 577.738281 311.714844 573.699219 C 323.878906 566.492188 336.480469 559.722656 348.898438 552.773438 C 356.941406 554.609375 360.730469 560.699219 365.164062 566.144531 C 352.953125 569.460938 364.121094 583.058594 371.554688 572.535156 C 379.375 580.410156 387.363281 588.105469 394.214844 596.949219 C 389.132812 597.613281 390.640625 604.570312 394.214844 605.667969 C 396.828125 605.566406 399.175781 605.207031 401.1875 604.503906 C 411.445312 612.457031 418.730469 623.378906 428.492188 631.824219 C 428.082031 633.546875 426.761719 634.355469 427.328125 637.054688 C 428.417969 639.457031 430.980469 640.375 434.882812 639.964844 C 442.636719 646.542969 451.085938 655.523438 456.378906 662.628906 C 441.226562 662.664062 453.941406 677.140625 463.351562 670.1875 C 468.828125 673.816406 474.445312 680.398438 477.296875 684.71875 C 471.421875 684.34375 463.835938 682.148438 463.351562 688.207031 C 462.625 697.308594 478.257812 691.714844 485.425781 693.4375 C 492.390625 695.109375 498.730469 709.175781 502.855469 711.453125 C 497.246094 710.28125 489.785156 708.808594 489.492188 714.363281 C 489.105469 721.808594 507.8125 720.910156 515.058594 723.082031 C 522.421875 732.179688 530.964844 740.105469 538.878906 748.652344 C 449.164062 700.269531 358.632812 647.65625 268.140625 598.109375 Z M 267.5625 276.097656 C 271.519531 286.480469 274.296875 298.035156 277.4375 309.230469 C 278.960938 310.925781 275.761719 311.417969 276.277344 313.878906 C 276.515625 320.191406 275.511719 327.015625 274.535156 334.804688 C 273.75 341.046875 270.335938 351.160156 276.277344 352.242188 C 284.410156 353.726562 282.519531 339.453125 283.828125 332.480469 C 284.65625 336.664062 288.523438 341.71875 289.058594 348.753906 C 289.84375 359.046875 279.429688 374.980469 288.476562 376.074219 C 292.179688 376.519531 294.046875 373.375 294.289062 369.097656 C 297.414062 374.90625 298.375 382.746094 300.675781 390.605469 C 302.808594 397.875 306.816406 405.445312 307.070312 412.109375 C 307.300781 418.273438 303.410156 425 311.136719 426.0625 C 316.117188 440.890625 320.898438 460.984375 326.238281 478.953125 C 328.058594 485.070312 331.527344 491.621094 331.46875 496.394531 C 331.351562 506.253906 321.019531 514.519531 322.753906 521.964844 C 325.363281 533.164062 336.722656 516.976562 335.539062 512.085938 C 339.789062 521.585938 341.492188 533.640625 345.414062 543.472656 C 335.066406 550.5625 323.058594 555.984375 312.296875 562.65625 C 313.5625 559.160156 312.699219 554.859375 308.808594 554.515625 C 302.15625 553.933594 299.546875 568.335938 296.03125 571.957031 C 287.628906 575.367188 281.070312 580.628906 272.792969 584.160156 C 274.660156 579.824219 277.710938 574.296875 280.34375 567.882812 C 282.929688 561.582031 290.222656 547.183594 282.085938 546.378906 C 276.828125 545.859375 273.804688 557.519531 272.210938 561.496094 C 269.335938 568.65625 267.972656 573.371094 265.238281 578.929688 C 265.042969 479.339844 267.40625 377.273438 267.5625 276.097656 Z M 552.820312 168.570312 C 551.226562 175.5 545.246094 183.070312 541.78125 190.074219 C 532.679688 190.476562 524.945312 192.9375 515.640625 194.726562 C 508.785156 196.039062 493.117188 195.558594 492.402344 201.695312 C 491.367188 210.527344 507.617188 205.582031 512.734375 204.601562 C 521.21875 202.984375 528.488281 201.089844 535.972656 199.953125 C 532.503906 208.304688 527.5625 215.175781 523.769531 223.203125 C 509.558594 223.460938 494.941406 226.835938 478.457031 229.019531 C 472.914062 229.75 466.683594 230.019531 466.253906 234.246094 C 465.367188 242.992188 484.59375 238.023438 490.65625 237.152344 C 500.578125 235.726562 508.480469 233.441406 517.382812 232.503906 C 518.296875 235.046875 515.371094 237.402344 513.898438 240.058594 C 509.546875 247.902344 504.917969 258.015625 499.949219 265.632812 C 492.851562 265.160156 486.808594 264.214844 478.457031 263.308594 C 472.3125 262.648438 460.8125 259.699219 459.863281 265.632812 C 458.839844 272.078125 469.914062 272.027344 474.96875 272.609375 C 483.136719 273.546875 488.109375 273.574219 494.722656 274.355469 C 489.898438 285.796875 483.113281 295.289062 477.875 306.324219 C 472.285156 304.644531 460.980469 298.546875 461.027344 306.902344 C 461.058594 312.238281 467.925781 312.210938 472.644531 314.460938 C 467.785156 325.871094 460.878906 335.238281 455.796875 346.429688 C 451.859375 344.460938 447.488281 342.535156 441.855469 339.453125 C 437.296875 336.964844 426.0625 327.308594 424.421875 335.96875 C 423.371094 341.53125 432.144531 343.96875 436.628906 346.429688 C 442.167969 349.472656 445.855469 352.3125 450.570312 354.566406 C 445.542969 365.621094 439.128906 375.28125 433.71875 385.953125 C 429.054688 384.589844 416.273438 372.785156 414.550781 381.886719 C 413.339844 388.265625 424.476562 390.890625 429.074219 394.09375 C 423.8125 404.328125 417.773438 413.785156 412.804688 424.316406 C 405.332031 422.632812 398.492188 404.492188 389.566406 406.300781 C 379.136719 408.40625 393.078125 418.820312 396.539062 421.992188 C 401.179688 426.242188 404.417969 429.496094 407.578125 433.617188 C 400.519531 445.546875 393.832031 457.84375 387.242188 470.234375 C 383.238281 466.054688 381.195312 461.140625 377.367188 455.121094 C 375.039062 451.46875 370.558594 441.5625 365.746094 441.753906 C 354.765625 442.1875 368.855469 459.257812 370.976562 462.679688 C 375.238281 469.566406 377.945312 475.289062 382.015625 478.953125 C 377.921875 487.648438 372.808594 495.316406 368.652344 503.949219 C 365.511719 499.207031 363.859375 493.804688 361.097656 487.089844 C 359.339844 482.8125 356.667969 472.546875 351.804688 472.5625 C 341.695312 472.59375 352.933594 490.804688 354.707031 495.230469 C 357.753906 502.816406 359.554688 509.339844 362.84375 513.832031 C 359.640625 520.703125 355.371094 526.507812 352.382812 533.59375 C 323.972656 438.984375 297.445312 342.496094 269.304688 247.617188 C 362.460938 219.914062 458.765625 195.367188 552.820312 168.570312 Z M 558.050781 80.796875 C 558.050781 89.515625 558.050781 98.234375 558.050781 106.949219 C 553.003906 110.210938 541.328125 112.351562 541.203125 118.578125 C 541.019531 127.871094 553.6875 119.976562 558.050781 117.414062 C 558.050781 123.035156 558.050781 128.65625 558.050781 134.273438 C 551.972656 136.355469 541.339844 136.890625 541.203125 142.992188 C 541.015625 151.378906 551.984375 145.136719 558.050781 144.152344 C 558.050781 148.613281 558.050781 153.066406 558.050781 157.523438 C 550.703125 159.859375 542.820312 161.660156 535.390625 163.917969 C 534.367188 154.496094 524.367188 157.394531 523.195312 167.40625 C 512.480469 170.054688 501.921875 172.859375 491.816406 176.121094 C 487.894531 169.863281 480.742188 174.15625 479.035156 179.613281 C 472.597656 180.726562 467.257812 182.9375 461.027344 184.261719 C 465.421875 168.582031 446.554688 180.003906 447.082031 188.328125 C 439.945312 190.101562 432.824219 191.886719 426.167969 194.140625 C 422.398438 183.710938 410.734375 192.769531 408.160156 198.789062 C 399.472656 201.214844 386.417969 205.25 379.941406 206.304688 C 384.484375 205.417969 391.621094 195.792969 383.757812 194.140625 C 378.429688 193.023438 360.75 207 358.195312 212.742188 C 355.84375 213.296875 353.570312 213.929688 351.222656 214.484375 C 350.664062 212.414062 351.378906 207.800781 347.734375 206.929688 C 342.144531 205.589844 330.953125 216.671875 329.144531 220.878906 C 316.925781 223.574219 305.902344 227.464844 293.707031 230.179688 C 381.65625 180.21875 469.371094 130.035156 558.050781 80.796875 Z M 766.621094 541.730469 C 630.980469 542.039062 494.054688 541.0625 359.355469 542.3125 C 358.894531 538.09375 362.128906 534.640625 364.003906 531.265625 C 429.742188 412.792969 496.621094 290.574219 562.695312 172.054688 C 630.675781 294.894531 700.152344 419.316406 766.621094 541.730469 Z M 567.925781 80.796875 C 656.109375 130.136719 743.265625 180.496094 831.691406 229.601562 C 823.363281 229.207031 813.980469 224.839844 804.964844 223.203125 C 804.679688 221.371094 806.011719 221.148438 805.546875 219.136719 C 803.753906 217.558594 780.757812 199.726562 778.238281 208.671875 C 776.925781 213.359375 781.71875 214.972656 784.628906 216.8125 C 770.667969 215.410156 762.238281 207.414062 749.191406 198.210938 C 745.816406 195.828125 741.847656 193.296875 737.574219 190.074219 C 733.828125 187.25 722.339844 177.164062 721.304688 186.585938 C 720.84375 190.769531 728.304688 194.839844 731.183594 197.050781 C 735.824219 200.597656 738.707031 202.753906 742.800781 205.183594 C 733.167969 204.359375 722.421875 199.613281 712.007812 197.632812 C 707.679688 195.84375 702.515625 182.511719 696.320312 183.097656 C 691.996094 183.503906 691.503906 189.453125 693.996094 192.398438 C 680.761719 188.785156 667.269531 185.425781 654.492188 181.351562 C 651.824219 181.335938 655.347656 179.699219 654.492188 177.867188 C 651.992188 174.109375 650.160156 167.070312 645.199219 167.40625 C 639.214844 167.804688 641.441406 175.390625 643.453125 178.445312 C 630.765625 175.445312 619.085938 171.441406 606.273438 168.570312 C 607.976562 158.570312 591.511719 149.554688 595.234375 165.078125 C 585.59375 162.902344 576.535156 160.148438 567.34375 157.523438 C 567.34375 152.488281 567.34375 147.445312 567.34375 142.410156 C 573.722656 142.46875 585.714844 149.957031 586.519531 141.828125 C 587.144531 135.519531 574.839844 134.210938 567.34375 133.113281 C 567.34375 128.265625 567.34375 123.425781 567.34375 118.578125 C 571.886719 121.058594 581.976562 125.964844 582.453125 118.578125 C 582.871094 112.039062 571.328125 111.667969 567.34375 107.539062 C 567.714844 98.796875 566.59375 88.566406 567.925781 80.796875 Z M 777.082031 436.523438 C 771.929688 436.191406 770.34375 447.394531 769.527344 450.472656 C 764.945312 467.761719 760.238281 484.191406 755 499.878906 C 749.539062 491.394531 745.0625 481.925781 739.894531 473.140625 C 744.871094 460.453125 750.359375 448.078125 755.582031 433.617188 C 757.070312 429.488281 760.046875 422.429688 753.839844 421.992188 C 748.230469 421.59375 744.253906 437.65625 742.800781 441.175781 C 739.390625 449.453125 737.382812 455.445312 734.085938 462.097656 C 729.902344 455.628906 726.515625 448.359375 722.46875 441.753906 C 724.035156 434.101562 738.535156 425.542969 737.574219 417.925781 C 736.269531 407.640625 727.242188 418.574219 724.785156 421.992188 C 721.921875 425.992188 719.902344 428.464844 717.820312 431.871094 C 713.425781 426.96875 711.132812 419.960938 707.359375 414.433594 C 710.914062 409.726562 714.773438 406.261719 720.140625 401.648438 C 723.214844 399.011719 739.601562 387.878906 729.441406 384.792969 C 724.523438 383.300781 718.796875 390.71875 714.914062 394.09375 C 709.449219 398.835938 706.191406 402.570312 702.132812 405.136719 C 698.921875 398.46875 695.160156 392.347656 691.675781 385.953125 C 695.179688 379.222656 710.980469 378.777344 710.847656 370.839844 C 710.644531 358.660156 691.761719 375.785156 687.023438 376.074219 C 682.472656 370.554688 679.363281 363.59375 675.988281 356.890625 C 679.90625 355.195312 684.742188 351.480469 691.097656 347.589844 C 696.777344 344.109375 709.410156 339.964844 702.132812 333.058594 C 688.222656 334.839844 682.441406 344.75 670.761719 348.753906 C 667.761719 340.707031 662.398438 335.03125 659.71875 326.664062 C 663.988281 325.035156 669.441406 324.605469 669.597656 320.277344 C 669.867188 312.96875 659.789062 316.375 654.492188 318.53125 C 651.503906 312.417969 647.464844 307.351562 645.199219 300.511719 C 651.667969 297.625 670.328125 298.675781 669.015625 290.050781 C 667.648438 281.046875 645.011719 292.71875 639.964844 292.957031 C 636.152344 283.792969 630.417969 276.542969 626.605469 267.378906 C 633.078125 266.550781 638.136719 266.40625 645.777344 265.050781 C 650.378906 264.242188 660.53125 263.546875 660.300781 258.082031 C 660.015625 251.253906 648.125 254.808594 642.292969 255.753906 C 634.644531 256.996094 627.839844 258.746094 621.957031 258.082031 C 615.449219 249.667969 610.867188 239.339844 605.691406 229.601562 C 611.019531 228.4375 641.425781 235.910156 639.964844 225.53125 C 638.761719 216.929688 606.890625 223.5625 599.882812 219.714844 C 596.046875 212.503906 591.796875 205.71875 588.261719 198.210938 C 600.484375 200.234375 612.601562 204.242188 626.605469 206.347656 C 629.75 206.824219 636.792969 207.796875 637.0625 202.859375 C 637.445312 195.902344 617.464844 194.953125 610.917969 193.5625 C 599.914062 191.214844 591.1875 189.441406 581.871094 187.167969 C 578.722656 180.820312 574.722656 175.328125 571.996094 168.570312 C 666.792969 194.433594 760.886719 221 856.089844 246.457031 C 828.8125 342.390625 800.824219 437.613281 773.59375 533.59375 C 769.234375 526.71875 765.546875 519.167969 761.390625 512.085938 C 766.839844 493.546875 772.789062 474.527344 778.238281 453.957031 C 779.597656 448.84375 784.101562 436.972656 777.082031 436.523438 Z M 870.035156 577.1875 C 868.222656 524.640625 868.289062 469.828125 868.289062 420.25 C 868.289062 358.222656 865.96875 302.914062 867.132812 240.640625 C 843.652344 224.757812 817.652344 211.542969 792.183594 197.050781 C 723.75 158.089844 653.039062 117.484375 583.613281 78.46875 C 577.082031 74.804688 568.488281 68.996094 562.695312 69.171875 C 555.121094 69.398438 547.464844 75.671875 540.621094 79.632812 C 451.867188 131.03125 365.054688 178.960938 275.695312 229.019531 C 270.429688 231.96875 259.171875 237.859375 258.265625 241.222656 C 257.003906 245.917969 258.847656 255.375 258.847656 263.308594 C 258.84375 285.667969 258.585938 309.890625 258.265625 330.734375 C 257.109375 406.164062 255.945312 478.714844 255.941406 555.097656 C 255.941406 568.601562 252.375 589.640625 255.941406 599.273438 C 257.453125 603.355469 267.269531 608.054688 273.371094 611.480469 C 364.675781 662.707031 452.140625 711.410156 542.363281 762.023438 C 547.890625 765.125 557.097656 772.050781 562.695312 771.90625 C 567.628906 771.777344 576.992188 765.066406 582.453125 762.023438 C 673.789062 711.144531 760.734375 662.003906 851.441406 611.480469 C 858.125 607.761719 867.816406 603.6875 869.453125 599.273438 C 871.25 594.417969 870.292969 584.761719 870.035156 577.1875 " fill-opacity="1" fill-rule="nonzero"/></g><path fill="#2d2727" d="M 626.605469 138.921875 C 630.101562 136.085938 633.914062 130.058594 636.484375 129.621094 C 639.066406 129.1875 641.828125 131.105469 642.292969 132.527344 C 644.824219 140.273438 633.621094 142.371094 631.253906 147.058594 C 636.566406 148.722656 642.445312 149.8125 648.101562 151.128906 C 647.394531 147.214844 649.164062 143.277344 652.167969 142.992188 C 657.582031 142.472656 659.757812 153.507812 663.789062 155.199219 C 670.824219 157.050781 685.648438 156 686.445312 162.753906 C 687.160156 168.808594 679.664062 168.464844 673.664062 166.238281 C 673.394531 167.089844 674.101562 171.464844 671.921875 172.050781 C 664.167969 175.136719 663.125 165.421875 657.394531 162.753906 C 652.175781 160.320312 643.921875 159.542969 637.644531 158.105469 C 631 156.582031 624.070312 156.457031 618.46875 152.871094 C 614.710938 146.230469 620.65625 143.753906 626.605469 138.921875 Z M 698.066406 164.496094 C 701.546875 163.292969 709.214844 167.015625 709.105469 171.472656 C 708.808594 183.488281 686.550781 168.484375 698.066406 164.496094 Z M 567.34375 107.535156 C 571.328125 111.667969 582.871094 112.035156 582.453125 118.578125 C 581.976562 125.964844 571.886719 121.054688 567.34375 118.578125 C 567.34375 123.425781 567.34375 128.265625 567.34375 133.109375 C 574.839844 134.210938 587.144531 135.519531 586.519531 141.828125 C 585.714844 149.957031 573.722656 142.464844 567.34375 142.40625 C 567.34375 147.445312 567.34375 152.484375 567.34375 157.523438 C 576.535156 160.148438 585.59375 162.902344 595.234375 165.078125 C 591.511719 149.554688 607.976562 158.570312 606.273438 168.566406 C 619.085938 171.4375 630.765625 175.445312 643.453125 178.445312 C 641.441406 175.386719 639.214844 167.804688 645.199219 167.40625 C 650.160156 167.070312 651.992188 174.109375 654.492188 177.867188 C 655.347656 179.703125 651.824219 181.332031 654.492188 181.351562 C 667.269531 185.425781 680.761719 188.785156 694 192.394531 C 691.5 189.449219 691.996094 183.503906 696.324219 183.097656 C 702.519531 182.511719 707.679688 195.84375 712.011719 197.628906 C 722.425781 199.613281 733.167969 204.355469 742.800781 205.183594 C 738.707031 202.753906 735.820312 200.597656 731.179688 197.046875 C 728.304688 194.84375 720.847656 190.765625 721.304688 186.582031 C 722.339844 177.160156 733.824219 187.25 737.570312 190.074219 C 741.851562 193.296875 745.816406 195.828125 749.191406 198.210938 C 762.238281 207.414062 770.667969 215.410156 784.632812 216.808594 C 781.71875 214.96875 776.925781 213.359375 778.242188 208.671875 C 780.753906 199.726562 803.757812 217.558594 805.546875 219.132812 C 806.011719 221.152344 804.683594 221.367188 804.964844 223.203125 C 813.984375 224.839844 823.363281 229.207031 831.691406 229.597656 C 743.261719 180.5 656.109375 130.136719 567.925781 80.796875 C 566.59375 88.570312 567.714844 98.800781 567.34375 107.535156 " fill-opacity="1" fill-rule="nonzero"/><path fill="#fff9f7" d="M 509.832031 150.546875 C 505.070312 156.828125 495.71875 158.519531 484.847656 158.6875 C 491.324219 154.261719 501.03125 150.804688 509.832031 150.546875 Z M 513.3125 136.015625 C 509.367188 139.628906 503.945312 141.753906 495.890625 141.246094 C 500.199219 138.347656 507.484375 135.472656 513.3125 136.015625 Z M 517.382812 144.734375 C 521.042969 142.375 522.695312 141.238281 523.195312 137.761719 C 526.21875 116.492188 476.710938 129.40625 486.589844 147.0625 C 481.003906 149.15625 476.082031 150.8125 474.96875 155.195312 C 468.429688 180.953125 534.5625 162.863281 517.382812 144.734375 " fill-opacity="1" fill-rule="nonzero"/><path fill="#fff9f7" d="M 637.644531 158.101562 C 643.921875 159.539062 652.175781 160.324219 657.394531 162.753906 C 663.125 165.421875 664.167969 175.136719 671.921875 172.054688 C 674.101562 171.460938 673.394531 167.085938 673.667969 166.242188 C 679.664062 168.464844 687.160156 168.808594 686.445312 162.753906 C 685.648438 155.996094 670.824219 157.050781 663.789062 155.195312 C 659.757812 153.503906 657.582031 142.46875 652.171875 142.988281 C 649.164062 143.277344 647.394531 147.214844 648.101562 151.128906 C 642.445312 149.816406 636.570312 148.71875 631.253906 147.058594 C 633.625 142.367188 644.824219 140.277344 642.292969 132.527344 C 641.828125 131.105469 639.066406 129.183594 636.484375 129.617188 C 633.914062 130.054688 630.101562 136.085938 626.605469 138.921875 C 620.65625 143.753906 614.710938 146.234375 618.472656 152.871094 C 624.070312 156.453125 631 156.582031 637.644531 158.101562 " fill-opacity="1" fill-rule="nonzero"/><path fill="#2d2727" d="M 513.3125 136.015625 C 507.484375 135.472656 500.195312 138.351562 495.890625 141.25 C 503.945312 141.75 509.367188 139.625 513.3125 136.015625 " fill-opacity="1" fill-rule="nonzero"/><path fill="#fff9f7" d="M 432.558594 177.867188 C 441.535156 170.976562 446.621094 166.6875 454.054688 159.847656 C 456.875 157.253906 463.652344 153.097656 462.769531 148.804688 C 462.140625 145.722656 459.628906 145.4375 456.960938 145.898438 C 450.148438 147.082031 445.339844 156.027344 438.371094 161.589844 C 435.480469 163.898438 420.582031 172.792969 420.941406 177.285156 C 421.457031 183.746094 428.835938 180.726562 432.558594 177.867188 " fill-opacity="1" fill-rule="nonzero"/><path fill="#2d2727" d="M 509.832031 150.546875 C 501.03125 150.804688 491.324219 154.265625 484.847656 158.683594 C 495.71875 158.519531 505.070312 156.832031 509.832031 150.546875 " fill-opacity="1" fill-rule="nonzero"/><path fill="#000000" d="M 709.105469 171.472656 C 709.214844 167.015625 701.550781 163.292969 698.066406 164.496094 C 686.550781 168.484375 708.8125 183.488281 709.105469 171.472656 " fill-opacity="1" fill-rule="nonzero"/><path fill="#3a3232" d="M 346.574219 416.757812 C 353.410156 414 360.71875 431.398438 352.96875 432.457031 C 347.371094 433.21875 339.878906 419.460938 346.574219 416.757812 Z M 343.667969 306.320312 C 344.863281 295.839844 355.554688 280.890625 362.84375 276.675781 C 365.671875 275.042969 371.082031 273.355469 376.203125 274.933594 C 393.082031 280.144531 389.148438 304.304688 392.472656 324.339844 C 396.960938 317.621094 400.476562 311.148438 404.671875 305.15625 C 407.210938 301.535156 413.789062 289.199219 419.777344 289.464844 C 432.195312 290.015625 420.574219 303.679688 417.453125 308.0625 C 413.722656 313.308594 412.039062 315.714844 408.742188 320.851562 C 404.214844 327.898438 398.894531 346.386719 391.3125 346.425781 C 381.722656 346.472656 379.28125 325.449219 378.527344 313.292969 C 377.835938 302.128906 379.195312 290.699219 371.554688 286.558594 C 364.863281 291.894531 355.804688 299.714844 355.871094 309.808594 C 355.90625 315.195312 362.816406 323.371094 355.289062 325.5 C 347.046875 327.835938 342.523438 316.386719 343.667969 306.320312 Z M 433.71875 236.574219 C 438.03125 247.367188 417.734375 249.199219 416.871094 242.382812 C 416.046875 235.839844 428.621094 234.75 433.71875 236.574219 Z M 372.71875 392.925781 C 370.519531 400.128906 355.253906 391.472656 359.355469 383.042969 C 365.503906 379.402344 374.265625 387.863281 372.71875 392.925781 Z M 469.742188 205.183594 C 473.769531 214.929688 458.457031 217.027344 457.542969 210.414062 C 456.820312 205.222656 464.707031 202.476562 469.742188 205.183594 Z M 362.84375 513.828125 C 359.554688 509.339844 357.753906 502.816406 354.707031 495.230469 C 352.933594 490.804688 341.695312 472.589844 351.804688 472.558594 C 356.671875 472.546875 359.339844 482.8125 361.097656 487.089844 C 363.859375 493.804688 365.511719 499.207031 368.652344 503.949219 C 372.808594 495.316406 377.921875 487.644531 382.015625 478.953125 C 377.945312 475.289062 375.238281 469.566406 370.976562 462.679688 C 368.855469 459.257812 354.765625 442.1875 365.746094 441.753906 C 370.558594 441.5625 375.039062 451.46875 377.367188 455.121094 C 381.195312 461.136719 383.242188 466.054688 387.242188 470.234375 C 393.835938 457.839844 400.523438 445.546875 407.578125 433.617188 C 404.421875 429.496094 401.179688 426.242188 396.539062 421.992188 C 393.082031 418.820312 379.136719 408.402344 389.566406 406.296875 C 398.492188 404.492188 405.332031 422.628906 412.804688 424.316406 C 417.773438 413.785156 423.8125 404.328125 429.074219 394.089844 C 424.476562 390.890625 413.339844 388.265625 414.550781 381.886719 C 416.273438 372.785156 429.054688 384.589844 433.71875 385.953125 C 439.128906 375.28125 445.542969 365.621094 450.570312 354.566406 C 445.855469 352.3125 442.167969 349.472656 436.628906 346.425781 C 432.144531 343.96875 423.375 341.527344 424.421875 335.964844 C 426.0625 327.304688 437.296875 336.964844 441.855469 339.453125 C 447.488281 342.53125 451.859375 344.460938 455.796875 346.425781 C 460.882812 335.234375 467.785156 325.871094 472.644531 314.460938 C 467.929688 312.207031 461.058594 312.238281 461.027344 306.902344 C 460.980469 298.546875 472.285156 304.640625 477.875 306.320312 C 483.113281 295.289062 489.898438 285.800781 494.722656 274.355469 C 488.109375 273.574219 483.140625 273.546875 474.96875 272.609375 C 469.914062 272.03125 458.839844 272.082031 459.863281 265.632812 C 460.816406 259.695312 472.3125 262.644531 478.460938 263.308594 C 486.808594 264.210938 492.851562 265.160156 499.953125 265.632812 C 504.917969 258.011719 509.546875 247.898438 513.898438 240.058594 C 515.371094 237.402344 518.296875 235.042969 517.382812 232.5 C 508.480469 233.441406 500.578125 235.726562 490.65625 237.152344 C 484.59375 238.023438 465.367188 242.988281 466.257812 234.246094 C 466.683594 230.015625 472.914062 229.746094 478.460938 229.015625 C 494.941406 226.839844 509.558594 223.457031 523.773438 223.199219 C 527.5625 215.171875 532.503906 208.300781 535.972656 199.953125 C 528.492188 201.089844 521.222656 202.984375 512.734375 204.601562 C 507.617188 205.578125 491.367188 210.527344 492.402344 201.695312 C 493.117188 195.558594 508.785156 196.039062 515.640625 194.722656 C 524.945312 192.933594 532.679688 190.476562 541.785156 190.070312 C 545.246094 183.070312 551.230469 175.5 552.824219 168.566406 C 458.765625 195.367188 362.460938 219.910156 269.304688 247.613281 C 297.445312 342.496094 323.972656 438.984375 352.382812 533.589844 C 355.375 526.507812 359.644531 520.703125 362.84375 513.828125 " fill-opacity="1" fill-rule="nonzero"/><path fill="#3a3232" d="M 786.375 397.578125 C 795.179688 390.816406 793.5625 405.386719 791.605469 410.945312 C 790.070312 415.316406 787.691406 422.035156 781.144531 417.925781 C 781.222656 413.988281 782.421875 400.617188 786.375 397.578125 Z M 778.824219 315.039062 C 774.753906 320.863281 755.121094 320.902344 748.609375 324.339844 C 750.554688 329.570312 754.425781 332.859375 756.164062 338.289062 C 761.09375 336.242188 772.613281 326.351562 775.339844 335.382812 C 777.597656 342.890625 767.5 346.484375 762.554688 348.753906 C 766.464844 353.242188 775.585938 369.613281 764.878906 370.257812 C 756.960938 370.742188 756.410156 358.691406 751.515625 354.566406 C 746.972656 355.640625 744.511719 358.792969 738.152344 358.050781 C 730.835938 352.292969 738.941406 344.574219 745.125 343.519531 C 743.75 334.734375 727.296875 324.863281 734.667969 315.621094 C 736.859375 312.875 764.65625 307.273438 772.429688 305.15625 C 777.082031 303.890625 782.75 309.429688 778.824219 315.039062 Z M 743.964844 400.480469 C 740.0625 392.761719 752.703125 384.921875 755 391.765625 C 756.613281 396.558594 750.550781 404.609375 743.964844 400.480469 Z M 707.945312 287.144531 C 711.355469 291.03125 716.988281 306.515625 705.621094 304.578125 C 701.382812 303.859375 700.296875 298.011719 695.746094 290.046875 C 691.925781 283.375 686.765625 278.539062 687.605469 273.773438 C 688.277344 270.027344 692.332031 267.578125 696.324219 269.125 C 699.246094 270.253906 698.402344 272.519531 701.554688 276.097656 C 711.332031 273.671875 719.109375 269.246094 727.695312 265.632812 C 724.824219 259.980469 715.125 261.164062 716.65625 251.101562 C 722.28125 243.636719 729.5625 251.5625 736.410156 255.75 C 742.839844 259.6875 749.882812 261.648438 745.707031 270.285156 C 733.394531 276.179688 721.625 282.617188 707.945312 287.144531 Z M 671.921875 257.496094 C 667.804688 249.351562 680.351562 248.363281 685.285156 251.101562 C 689.503906 259.378906 676.253906 261.351562 671.921875 257.496094 Z M 656.238281 210.414062 C 654.226562 199.113281 688.675781 207.988281 677.152344 216.8125 C 669.839844 215.535156 657.300781 216.398438 656.238281 210.414062 Z M 761.394531 512.085938 C 765.546875 519.167969 769.238281 526.71875 773.59375 533.589844 C 800.824219 437.609375 828.816406 342.386719 856.09375 246.453125 C 760.886719 220.996094 666.792969 194.429688 571.996094 168.566406 C 574.726562 175.324219 578.726562 180.816406 581.871094 187.167969 C 591.1875 189.4375 599.914062 191.214844 610.921875 193.558594 C 617.464844 194.953125 637.449219 195.902344 637.0625 202.859375 C 636.792969 207.796875 629.75 206.820312 626.609375 206.347656 C 612.601562 204.238281 600.488281 200.230469 588.261719 198.207031 C 591.796875 205.71875 596.046875 212.503906 599.882812 219.714844 C 606.890625 223.5625 638.761719 216.925781 639.96875 225.527344 C 641.425781 235.910156 611.023438 228.4375 605.691406 229.597656 C 610.867188 239.339844 615.449219 249.667969 621.957031 258.078125 C 627.839844 258.742188 634.644531 256.992188 642.292969 255.75 C 648.125 254.808594 660.015625 251.253906 660.300781 258.078125 C 660.53125 263.546875 650.378906 264.242188 645.777344 265.050781 C 638.136719 266.402344 633.078125 266.550781 626.609375 267.378906 C 630.417969 276.542969 636.15625 283.789062 639.96875 292.953125 C 645.015625 292.71875 667.648438 281.046875 669.019531 290.046875 C 670.328125 298.671875 651.671875 297.621094 645.199219 300.511719 C 647.464844 307.347656 651.503906 312.417969 654.492188 318.527344 C 659.789062 316.375 669.867188 312.96875 669.597656 320.269531 C 669.441406 324.605469 663.992188 325.035156 659.722656 326.664062 C 662.398438 335.027344 667.765625 340.707031 670.761719 348.753906 C 682.445312 344.75 688.222656 334.835938 702.136719 333.058594 C 709.414062 339.960938 696.777344 344.109375 691.097656 347.589844 C 684.746094 351.480469 679.910156 355.195312 675.988281 356.890625 C 679.367188 363.589844 682.476562 370.554688 687.027344 376.070312 C 691.765625 375.785156 710.644531 358.660156 710.847656 370.839844 C 710.980469 378.777344 695.179688 379.222656 691.675781 385.953125 C 695.164062 392.347656 698.921875 398.46875 702.136719 405.136719 C 706.195312 402.570312 709.453125 398.835938 714.914062 394.089844 C 718.796875 390.71875 724.527344 383.300781 729.4375 384.792969 C 739.605469 387.878906 723.214844 399.007812 720.140625 401.648438 C 714.773438 406.261719 710.917969 409.726562 707.363281 414.433594 C 711.136719 419.960938 713.425781 426.96875 717.816406 431.871094 C 719.90625 428.464844 721.921875 425.992188 724.789062 421.992188 C 727.246094 418.570312 736.273438 407.640625 737.570312 417.925781 C 738.535156 425.542969 724.039062 434.097656 722.46875 441.753906 C 726.515625 448.359375 729.90625 455.628906 734.085938 462.097656 C 737.382812 455.445312 739.390625 449.453125 742.800781 441.175781 C 744.253906 437.652344 748.230469 421.59375 753.839844 421.992188 C 760.046875 422.429688 757.074219 429.488281 755.582031 433.617188 C 750.359375 448.078125 744.875 460.453125 739.898438 473.140625 C 745.0625 481.925781 749.539062 491.394531 755 499.878906 C 760.242188 484.191406 764.949219 467.757812 769.527344 450.472656 C 770.34375 447.394531 771.929688 436.191406 777.082031 436.523438 C 784.101562 436.972656 779.601562 448.839844 778.242188 453.957031 C 772.789062 474.527344 766.84375 493.546875 761.394531 512.085938 " fill-opacity="1" fill-rule="nonzero"/><path fill="#544b4b" d="M 516.804688 375.492188 C 513.433594 376.746094 509.933594 379.871094 507.503906 383.628906 C 504.125 388.863281 504.496094 395.835938 499.375 396.417969 C 487.324219 397.773438 494.878906 380.34375 498.210938 375.492188 C 505.683594 364.601562 527.574219 355.566406 541.203125 367.9375 C 548.109375 374.203125 550.503906 386.042969 547.59375 395.253906 C 541.070312 415.890625 514.105469 420.378906 505.179688 441.753906 C 515.523438 443.082031 551.757812 436.1875 553.402344 446.40625 C 555.234375 457.8125 536.753906 452.953125 523.195312 453.378906 C 512.675781 453.710938 492.015625 457.972656 490.65625 448.148438 C 489.367188 438.796875 501.382812 424.046875 506.339844 419.085938 C 515.402344 410.023438 534.664062 401.691406 536.554688 390.019531 C 538.699219 376.765625 526.816406 371.757812 516.804688 375.492188 Z M 595.816406 369.679688 C 599.734375 367.539062 604.28125 366.769531 610.339844 366.191406 C 640.878906 363.269531 651.523438 404.617188 642.871094 434.78125 C 640.886719 441.699219 635.417969 450.394531 630.09375 453.957031 C 620.363281 460.480469 601.796875 460.285156 590.585938 451.636719 C 568.828125 434.84375 575.871094 380.558594 595.816406 369.679688 Z M 359.355469 542.3125 C 494.054688 541.0625 630.980469 542.039062 766.621094 541.730469 C 700.152344 419.316406 630.671875 294.894531 562.699219 172.054688 C 496.625 290.574219 429.742188 412.789062 364.003906 531.265625 C 362.128906 534.640625 358.894531 538.09375 359.355469 542.3125 " fill-opacity="1" fill-rule="nonzero"/><path fill="#000000" d="M 399.441406 176.121094 C 395.203125 177.066406 391.066406 180.421875 392.472656 184.839844 C 396.089844 196.203125 417.035156 172.210938 399.441406 176.121094 " fill-opacity="1" fill-rule="nonzero"/><path fill="#000000" d="M 469.742188 205.183594 C 464.707031 202.476562 456.820312 205.222656 457.542969 210.414062 C 458.457031 217.027344 473.769531 214.929688 469.742188 205.183594 " fill-opacity="1" fill-rule="nonzero"/><path fill="#000000" d="M 656.234375 210.414062 C 657.300781 216.40625 669.839844 215.539062 677.148438 216.8125 C 688.675781 207.996094 654.226562 199.113281 656.234375 210.414062 " fill-opacity="1" fill-rule="nonzero"/><path fill="#000000" d="M 433.71875 236.574219 C 428.621094 234.753906 416.046875 235.84375 416.871094 242.386719 C 417.734375 249.203125 438.03125 247.367188 433.71875 236.574219 " fill-opacity="1" fill-rule="nonzero"/><path fill="#fff9f7" d="M 736.40625 255.753906 C 729.5625 251.5625 722.277344 243.636719 716.65625 251.105469 C 715.125 261.164062 724.824219 259.980469 727.695312 265.632812 C 719.109375 269.246094 711.328125 273.675781 701.554688 276.097656 C 698.402344 272.519531 699.242188 270.253906 696.320312 269.125 C 692.328125 267.578125 688.273438 270.027344 687.609375 273.773438 C 686.761719 278.539062 691.925781 283.375 695.742188 290.050781 C 700.292969 298.011719 701.382812 303.859375 705.617188 304.582031 C 716.984375 306.519531 711.351562 291.035156 707.945312 287.144531 C 721.621094 282.617188 733.394531 276.179688 745.707031 270.285156 C 749.882812 261.648438 742.839844 259.691406 736.40625 255.753906 " fill-opacity="1" fill-rule="nonzero"/><path fill="#000000" d="M 671.925781 257.496094 C 676.253906 261.351562 689.503906 259.378906 685.285156 251.101562 C 680.351562 248.363281 667.804688 249.351562 671.925781 257.496094 " fill-opacity="1" fill-rule="nonzero"/><path fill="#fff9f7" d="M 355.289062 325.503906 C 362.816406 323.375 355.902344 315.199219 355.871094 309.8125 C 355.804688 299.714844 364.863281 291.898438 371.554688 286.558594 C 379.195312 290.699219 377.835938 302.132812 378.527344 313.296875 C 379.28125 325.449219 381.722656 346.472656 391.3125 346.425781 C 398.894531 346.390625 404.214844 327.902344 408.742188 320.855469 C 412.039062 315.714844 413.722656 313.308594 417.453125 308.066406 C 420.574219 303.683594 432.195312 290.015625 419.777344 289.464844 C 413.789062 289.199219 407.210938 301.535156 404.671875 305.160156 C 400.476562 311.148438 396.957031 317.621094 392.472656 324.339844 C 389.148438 304.304688 393.082031 280.144531 376.203125 274.933594 C 371.082031 273.355469 365.671875 275.042969 362.84375 276.679688 C 355.554688 280.894531 344.863281 295.839844 343.667969 306.324219 C 342.523438 316.386719 347.046875 327.835938 355.289062 325.503906 " fill-opacity="1" fill-rule="nonzero"/><path fill="#2d2727" d="M 847.957031 513.25 C 834.425781 522.835938 842.707031 497.894531 842.726562 488.835938 C 838.875 490.378906 838.285156 491.773438 834.59375 491.742188 C 814.800781 491.589844 823.441406 440.660156 842.726562 448.148438 C 857.617188 453.929688 851.734375 499.019531 847.957031 513.25 Z M 841.5625 393.515625 C 849.007812 390.511719 854.40625 407.832031 846.214844 408.039062 C 841.054688 408.175781 835.578125 395.925781 841.5625 393.515625 Z M 851.441406 296.441406 C 851.617188 299.71875 855.085938 302.886719 854.347656 305.746094 C 853.445312 309.222656 849.859375 309.328125 846.792969 309.226562 C 846.039062 313.898438 845.003906 318.289062 843.890625 322.597656 C 845.40625 327.90625 855.996094 339.980469 849.699219 344.105469 C 843.644531 348.074219 842.46875 338.398438 839.242188 335.96875 C 837.765625 342.625 835.726562 348.726562 834.59375 355.730469 C 835.476562 360.972656 844.75 370.625 842.726562 376.652344 C 839.675781 385.777344 830.335938 372.757812 829.945312 368.515625 C 828.632812 374.175781 826.839844 379.355469 825.300781 384.792969 C 827.335938 389.0625 834.925781 404.039062 826.460938 404.554688 C 823.1875 404.753906 822.847656 401.894531 820.648438 399.902344 C 821.628906 405.160156 816.546875 407.097656 817.742188 413.855469 C 818.589844 418.589844 826.691406 424.453125 824.71875 430.128906 C 822.367188 436.878906 814.3125 430.3125 813.675781 426.0625 C 812.078125 430.464844 810.890625 435.285156 809.613281 440.011719 C 812.644531 442.40625 815.378906 445.089844 814.839844 451.054688 C 813.566406 451.71875 812.910156 452.996094 811.351562 453.378906 C 808.695312 454.386719 806.527344 449.707031 806.125 452.21875 C 804.941406 455.488281 803.863281 458.867188 803.21875 462.679688 C 806.363281 466.988281 819.78125 484.382812 809.03125 484.765625 C 802.835938 484.992188 804.109375 477.078125 799.152344 474.886719 C 799.957031 482.84375 792.988281 486.332031 793.34375 496.972656 C 793.679688 507.003906 804.476562 515.253906 802.058594 522.546875 C 798.796875 532.390625 788.515625 517 788.699219 512.085938 C 785.835938 522.789062 782.875 533.390625 779.984375 544.054688 C 784.59375 546.222656 788.316406 549.277344 793.34375 551.03125 C 795.367188 544.773438 793.960938 531.179688 801.480469 532.429688 C 809.351562 533.742188 801.863281 549.664062 801.480469 556.261719 C 810.007812 560.125 817.003906 565.53125 825.878906 569.046875 C 827.121094 562.402344 824.15625 552.59375 830.527344 552.191406 C 838.503906 551.691406 835.480469 567.511719 833.433594 574.277344 C 843.242188 578.417969 851.207031 584.398438 860.738281 588.8125 C 859.382812 484.769531 859.105469 379.644531 857.25 276.097656 C 857.199219 282.5 851.023438 288.691406 851.441406 296.441406 " fill-opacity="1" fill-rule="nonzero"/><path fill="#fff9f7" d="M 772.429688 305.160156 C 764.652344 307.273438 736.859375 312.875 734.667969 315.621094 C 727.296875 324.867188 743.75 334.730469 745.125 343.523438 C 738.9375 344.574219 730.835938 352.292969 738.152344 358.058594 C 744.511719 358.796875 746.972656 355.640625 751.515625 354.566406 C 756.40625 358.695312 756.957031 370.742188 764.875 370.265625 C 775.582031 369.613281 766.464844 353.246094 762.554688 348.753906 C 767.5 346.484375 777.59375 342.894531 775.335938 335.386719 C 772.613281 326.355469 761.09375 336.246094 756.164062 338.292969 C 754.425781 332.863281 750.550781 329.570312 748.613281 324.34375 C 755.121094 320.902344 774.753906 320.863281 778.820312 315.042969 C 782.746094 309.429688 777.082031 303.894531 772.429688 305.160156 " fill-opacity="1" fill-rule="nonzero"/><path fill="#fff9f7" d="M 506.34375 419.085938 C 501.382812 424.046875 489.367188 438.796875 490.65625 448.148438 C 492.015625 457.972656 512.675781 453.710938 523.191406 453.378906 C 536.753906 452.953125 555.238281 457.808594 553.402344 446.40625 C 551.757812 436.183594 515.523438 443.078125 505.179688 441.757812 C 514.109375 420.378906 541.070312 415.890625 547.59375 395.253906 C 550.503906 386.042969 548.113281 374.203125 541.203125 367.933594 C 527.570312 355.566406 505.683594 364.601562 498.210938 375.492188 C 494.882812 380.34375 487.324219 397.777344 499.375 396.417969 C 504.496094 395.835938 504.125 388.859375 507.503906 383.628906 C 509.933594 379.871094 513.433594 376.746094 516.804688 375.492188 C 526.820312 371.757812 538.699219 376.765625 536.554688 390.019531 C 534.667969 401.6875 515.402344 410.023438 506.34375 419.085938 " fill-opacity="1" fill-rule="nonzero"/><path fill="#fff9f7" d="M 602.203125 380.140625 C 604.515625 378.972656 607.847656 378.652344 611.5 378.398438 C 636.792969 376.644531 639.40625 433.273438 622.542969 444.078125 C 611.050781 451.4375 595.859375 442.394531 592.328125 432.457031 C 586.863281 417.078125 589.484375 386.558594 602.203125 380.140625 Z M 590.585938 451.636719 C 601.796875 460.289062 620.363281 460.476562 630.09375 453.957031 C 635.417969 450.394531 640.890625 441.699219 642.871094 434.777344 C 651.519531 404.617188 640.882812 363.269531 610.339844 366.191406 C 604.28125 366.769531 599.734375 367.539062 595.816406 369.679688 C 575.871094 380.5625 568.828125 434.84375 590.585938 451.636719 " fill-opacity="1" fill-rule="nonzero"/><path fill="#544b4b" d="M 622.542969 444.078125 C 639.40625 433.273438 636.792969 376.644531 611.5 378.398438 C 607.847656 378.648438 604.515625 378.972656 602.203125 380.140625 C 589.484375 386.558594 586.863281 417.078125 592.328125 432.457031 C 595.859375 442.394531 611.050781 451.4375 622.542969 444.078125 " fill-opacity="1" fill-rule="nonzero"/><path fill="#000000" d="M 359.355469 383.050781 C 355.253906 391.472656 370.519531 400.132812 372.71875 392.929688 C 374.265625 387.863281 365.503906 379.40625 359.355469 383.050781 " fill-opacity="1" fill-rule="nonzero"/><path fill="#000000" d="M 743.964844 400.484375 C 750.550781 404.609375 756.613281 396.558594 755 391.769531 C 752.699219 384.917969 740.058594 392.761719 743.964844 400.484375 " fill-opacity="1" fill-rule="nonzero"/><path fill="#000000" d="M 280.34375 406.300781 C 285.113281 405.824219 285.890625 397.757812 284.410156 391.765625 C 274.402344 383.765625 271.40625 407.191406 280.34375 406.300781 " fill-opacity="1" fill-rule="nonzero"/><path fill="#000000" d="M 846.214844 408.039062 C 854.402344 407.832031 849.007812 390.507812 841.5625 393.515625 C 835.578125 395.925781 841.050781 408.175781 846.214844 408.039062 " fill-opacity="1" fill-rule="nonzero"/><path fill="#000000" d="M 791.605469 410.949219 C 793.558594 405.386719 795.179688 390.820312 786.375 397.578125 C 782.425781 400.617188 781.222656 413.988281 781.148438 417.925781 C 787.691406 422.035156 790.070312 415.316406 791.605469 410.949219 " fill-opacity="1" fill-rule="nonzero"/><path fill="#fff9f7" d="M 283.828125 480.117188 C 290.324219 478.25 280.589844 458.585938 280.34375 453.960938 C 279.050781 429.730469 297.285156 459.644531 303.003906 458.613281 C 311.003906 457.167969 303.613281 441.105469 301.839844 435.359375 C 299.34375 427.28125 295.476562 403.261719 285.574219 412.691406 C 286.414062 422.503906 291.308594 428.265625 292.542969 437.683594 C 281.753906 430.324219 272.320312 437.425781 271.046875 448.148438 C 269.632812 460.097656 276.851562 482.125 283.828125 480.117188 " fill-opacity="1" fill-rule="nonzero"/><path fill="#000000" d="M 352.964844 432.457031 C 360.71875 431.398438 353.410156 414.003906 346.574219 416.761719 C 339.878906 419.464844 347.371094 433.21875 352.964844 432.457031 " fill-opacity="1" fill-rule="nonzero"/><path fill="#fff9f7" d="M 834.015625 482.441406 C 831.007812 473.90625 834.789062 462.894531 838.082031 456.867188 C 845.15625 463.71875 840.777344 478.09375 834.015625 482.441406 Z M 842.734375 448.148438 C 823.441406 440.660156 814.800781 491.585938 834.59375 491.742188 C 838.289062 491.773438 838.875 490.378906 842.734375 488.832031 C 842.707031 497.890625 834.429688 522.835938 847.960938 513.25 C 851.738281 499.019531 857.617188 453.925781 842.734375 448.148438 " fill-opacity="1" fill-rule="nonzero"/><path fill="#2d2727" d="M 834.015625 482.441406 C 840.777344 478.09375 845.160156 463.71875 838.078125 456.867188 C 834.792969 462.894531 831.007812 473.90625 834.015625 482.441406 " fill-opacity="1" fill-rule="nonzero"/><path fill="#fff9f7" d="M 301.839844 467.910156 C 298.917969 468.183594 295.542969 471.796875 300.097656 478.375 C 296.195312 483.984375 294.226562 489.25 290.800781 496.972656 C 288.597656 501.933594 281.472656 510.945312 282.667969 516.734375 C 284.574219 525.976562 312.746094 522.683594 303.003906 512.667969 C 300.097656 511.214844 297.398438 513.167969 293.707031 512.667969 C 297.539062 504.488281 300.71875 495.660156 305.324219 488.257812 C 307.464844 493.542969 315.292969 494.265625 315.78125 488.257812 C 316.050781 484.957031 305.808594 467.539062 301.839844 467.910156 " fill-opacity="1" fill-rule="nonzero"/><path fill="#3a3232" d="M 615.566406 616.132812 C 609.636719 614.238281 615.398438 597.671875 623.703125 601.015625 C 628.148438 606.726562 621.671875 618.078125 615.566406 616.132812 Z M 583.035156 670.769531 C 568.1875 681.226562 531.097656 674.625 531.90625 655.074219 C 532.144531 649.304688 535 646.640625 537.71875 642.285156 C 531.363281 638.464844 524.449219 633.621094 524.355469 624.269531 C 524.179688 607.34375 544.160156 603.910156 562.699219 602.761719 C 588.101562 601.183594 603.746094 625.535156 583.613281 640.542969 C 591.765625 648.375 593.488281 663.398438 583.035156 670.769531 Z M 454.054688 592.878906 C 450.15625 599.703125 440.644531 589.625 441.273438 584.742188 C 442.351562 576.386719 455.9375 583.171875 454.054688 592.878906 Z M 759.652344 551.03125 C 755.390625 551.03125 751.128906 551.03125 746.867188 551.03125 C 735.890625 561.5625 724.886719 572.816406 714.332031 584.742188 C 711.96875 587.414062 707.125 595.765625 702.136719 594.625 C 693.246094 592.589844 704.769531 582.277344 706.203125 580.671875 C 714.15625 571.757812 721.75 563.59375 728.859375 555.679688 C 730.09375 554.304688 732.597656 552.765625 731.761719 551.03125 C 722.273438 551.03125 712.785156 551.03125 703.296875 551.03125 C 698.617188 558.160156 694.289062 563.839844 688.191406 571.375 C 685.789062 574.339844 675.871094 590.171875 669.597656 588.230469 C 662.890625 586.152344 670.113281 578.359375 672.503906 575.441406 C 679.195312 567.273438 687.234375 558.355469 691.675781 551.03125 C 681.214844 551.03125 670.757812 551.03125 660.300781 551.03125 C 657.394531 557.550781 654.875 562.164062 650.425781 569.046875 C 647.761719 573.167969 642.359375 584.785156 636.484375 583.578125 C 627.820312 581.800781 638.652344 569.84375 641.128906 566.144531 C 645.207031 560.046875 647.542969 555.421875 649.84375 551.03125 C 640.9375 551.03125 632.03125 551.03125 623.121094 551.03125 C 621.84375 559.300781 614.976562 580.222656 608.59375 577.769531 C 598.996094 574.074219 615.789062 556.371094 613.824219 551.03125 C 603.945312 551.03125 594.070312 551.03125 584.191406 551.03125 C 585.15625 558.082031 585.320312 566.8125 579.542969 566.722656 C 572.375 566.613281 576.746094 558.171875 574.902344 551.609375 C 567.324219 550.277344 557.292969 551.402344 548.753906 551.03125 C 547.597656 559.734375 555.117188 581.535156 545.269531 580.671875 C 536.644531 579.921875 542.773438 558.964844 538.878906 551.03125 C 530.359375 551.03125 521.835938 551.03125 513.3125 551.03125 C 514.132812 557.867188 517.066406 568.246094 510.40625 568.46875 C 504.214844 568.671875 505.382812 557.816406 504.015625 551.03125 C 493.753906 551.03125 483.492188 551.03125 473.226562 551.03125 C 474.539062 555.703125 477.238281 560.105469 480.199219 566.144531 C 482.804688 571.453125 491.484375 585.3125 481.941406 585.324219 C 476.886719 585.328125 473.097656 574.238281 470.90625 569.628906 C 467.351562 562.164062 465.980469 556.429688 462.1875 551.03125 C 451.925781 551.414062 440.113281 550.257812 430.816406 551.609375 C 433.675781 554.777344 446.28125 570.101562 436.046875 570.792969 C 429.332031 571.246094 423.882812 555.292969 419.777344 551.03125 C 410.484375 551.03125 401.1875 551.03125 391.890625 551.03125 C 401.757812 562.394531 412.027344 573.144531 422.683594 584.742188 C 424.175781 586.371094 432.808594 593.269531 431.976562 597.527344 C 429.804688 608.648438 417.398438 592.472656 414.550781 589.390625 C 406.019531 580.171875 398.449219 571.984375 390.148438 563.234375 C 386.335938 559.210938 381.175781 551.921875 376.785156 551.03125 C 373.035156 550.269531 368.847656 552.757812 365.746094 551.609375 C 429.101562 620.945312 497.480469 690.289062 562.117188 760.28125 C 625.710938 692.976562 692.964844 625.191406 755 556.84375 C 756.84375 554.8125 761.03125 552.929688 759.652344 551.03125 " fill-opacity="1" fill-rule="nonzero"/><path fill="#000000" d="M 441.273438 584.742188 C 440.644531 589.625 450.15625 599.703125 454.054688 592.878906 C 455.9375 583.171875 442.351562 576.386719 441.273438 584.742188 " fill-opacity="1" fill-rule="nonzero"/><path fill="#fff9f7" d="M 786.375 589.976562 C 785.207031 593.484375 788.808594 595.257812 788.117188 596.367188 C 781.300781 601.457031 745.441406 599.964844 752.679688 613.222656 C 758.363281 614.167969 767.488281 611.484375 777.078125 609.15625 C 784.515625 607.351562 796.214844 605.402344 799.152344 601.601562 C 803.925781 595.433594 792.320312 582.234375 786.375 589.976562 " fill-opacity="1" fill-rule="nonzero"/><path fill="#fff9f7" d="M 377.367188 623.6875 C 365 631.175781 347.988281 621.898438 344.832031 610.898438 C 356.875 604.257812 378.515625 610.113281 377.367188 623.6875 Z M 382.015625 609.15625 C 376.488281 601.710938 363.621094 596.945312 347.734375 599.855469 C 329.574219 603.179688 336.074219 620.824219 346.574219 628.914062 C 353.105469 633.953125 362.753906 636.144531 369.8125 635.890625 C 387.167969 635.273438 391.464844 621.886719 382.015625 609.15625 " fill-opacity="1" fill-rule="nonzero"/><path fill="#000000" d="M 615.566406 616.132812 C 621.675781 618.078125 628.148438 606.726562 623.703125 601.015625 C 615.394531 597.671875 609.636719 614.238281 615.566406 616.132812 " fill-opacity="1" fill-rule="nonzero"/><path fill="#fff9f7" d="M 561.535156 635.890625 C 560.035156 635.847656 557.03125 634.039062 554.566406 633.566406 C 547.683594 632.25 537.148438 631.199219 537.136719 624.269531 C 537.121094 615.40625 550.074219 616.230469 560.371094 615.546875 C 568.570312 615.003906 579.789062 615.492188 580.707031 623.105469 C 581.535156 629.941406 569.242188 636.125 561.535156 635.890625 Z M 577.804688 657.980469 C 574.921875 667.542969 548.980469 662.3125 544.109375 656.816406 C 544.351562 651.125 553.238281 646.398438 560.957031 646.355469 C 568.089844 646.316406 580.628906 648.601562 577.804688 657.980469 Z M 562.699219 602.761719 C 544.160156 603.910156 524.179688 607.34375 524.355469 624.269531 C 524.449219 633.621094 531.363281 638.464844 537.71875 642.285156 C 535 646.640625 532.144531 649.304688 531.90625 655.074219 C 531.097656 674.625 568.183594 681.222656 583.035156 670.769531 C 593.492188 663.398438 591.765625 648.375 583.613281 640.542969 C 603.75 625.535156 588.105469 601.183594 562.699219 602.761719 " fill-opacity="1" fill-rule="nonzero"/><path fill="#2d2727" d="M 344.832031 610.898438 C 347.988281 621.898438 365 631.175781 377.367188 623.6875 C 378.515625 610.113281 356.875 604.257812 344.832031 610.898438 " fill-opacity="1" fill-rule="nonzero"/><path fill="#3a3232" d="M 560.371094 615.546875 C 550.074219 616.234375 537.117188 615.40625 537.136719 624.269531 C 537.144531 631.199219 547.683594 632.25 554.566406 633.566406 C 557.027344 634.042969 560.035156 635.847656 561.53125 635.890625 C 569.246094 636.125 581.535156 629.941406 580.707031 623.105469 C 579.789062 615.492188 568.566406 615.003906 560.371094 615.546875 " fill-opacity="1" fill-rule="nonzero"/><path fill="#fff9f7" d="M 707.359375 661.464844 C 709.882812 652.363281 716.445312 647.308594 724.207031 643.449219 C 723.636719 652.179688 716.753906 659.628906 707.359375 661.464844 Z M 756.164062 631.242188 C 741.542969 625.078125 716.507812 633.894531 706.199219 644.609375 C 701.042969 649.972656 692.265625 666.890625 704.457031 670.769531 C 723.027344 670.226562 734.003906 656.335938 733.503906 640.542969 C 737.761719 638.714844 744.890625 638.261719 750.355469 639.378906 C 751.898438 646.867188 764.929688 650.847656 763.136719 638.800781 C 762.765625 636.328125 758.804688 632.355469 756.164062 631.242188 " fill-opacity="1" fill-rule="nonzero"/><path fill="#fff9f7" d="M 411.0625 638.796875 C 404.007812 639.390625 408.515625 647.910156 409.320312 649.84375 C 400.679688 651.085938 379.710938 643.699219 379.109375 652.167969 C 378.917969 654.890625 383.707031 659.265625 386.082031 660.886719 C 390.425781 663.847656 395.347656 664.917969 401.1875 664.957031 C 403.101562 663.769531 403.398438 660.964844 404.089844 658.558594 C 409.105469 658.195312 412.378906 659.570312 417.453125 659.144531 C 419.894531 664.613281 428.796875 666.546875 429.074219 659.722656 C 429.199219 656.59375 414.300781 638.527344 411.0625 638.796875 " fill-opacity="1" fill-rule="nonzero"/><path fill="#2d2727" d="M 707.363281 661.464844 C 716.753906 659.628906 723.636719 652.179688 724.210938 643.449219 C 716.449219 647.308594 709.882812 652.363281 707.363281 661.464844 " fill-opacity="1" fill-rule="nonzero"/><path fill="#3a3232" d="M 560.957031 646.355469 C 553.234375 646.398438 544.351562 651.128906 544.109375 656.816406 C 548.980469 662.3125 574.921875 667.542969 577.804688 657.980469 C 580.628906 648.601562 568.085938 646.316406 560.957031 646.355469 " fill-opacity="1" fill-rule="nonzero"/><path fill="#2d2727" d="M 399.441406 176.125 C 417.035156 172.214844 396.089844 196.203125 392.472656 184.839844 C 391.066406 180.421875 395.203125 177.066406 399.441406 176.125 Z M 438.371094 161.589844 C 445.339844 156.027344 450.148438 147.078125 456.960938 145.898438 C 459.632812 145.433594 462.140625 145.722656 462.769531 148.800781 C 463.652344 153.097656 456.875 157.25 454.054688 159.847656 C 446.621094 166.683594 441.535156 170.976562 432.558594 177.867188 C 428.835938 180.722656 421.457031 183.746094 420.941406 177.285156 C 420.582031 172.789062 435.480469 163.898438 438.371094 161.589844 Z M 474.96875 155.199219 C 476.082031 150.816406 481.003906 149.152344 486.589844 147.058594 C 476.710938 129.40625 526.222656 116.488281 523.195312 137.761719 C 522.695312 141.238281 521.042969 142.375 517.382812 144.734375 C 534.566406 162.863281 468.429688 180.953125 474.96875 155.199219 Z M 347.734375 206.925781 C 351.378906 207.800781 350.664062 212.414062 351.222656 214.488281 C 353.570312 213.925781 355.84375 213.300781 358.195312 212.742188 C 360.75 207 378.429688 193.023438 383.757812 194.136719 C 391.621094 195.792969 384.488281 205.417969 379.941406 206.308594 C 386.417969 205.246094 399.472656 201.214844 408.160156 198.789062 C 410.734375 192.765625 422.398438 183.707031 426.167969 194.136719 C 432.828125 191.886719 439.945312 190.101562 447.085938 188.328125 C 446.554688 180.003906 465.425781 168.578125 461.027344 184.261719 C 467.257812 182.9375 472.597656 180.722656 479.035156 179.613281 C 480.742188 174.15625 487.894531 169.859375 491.820312 176.125 C 501.921875 172.859375 512.480469 170.054688 523.195312 167.40625 C 524.367188 157.394531 534.367188 154.496094 535.390625 163.917969 C 542.820312 161.660156 550.703125 159.859375 558.050781 157.523438 C 558.050781 153.066406 558.050781 148.609375 558.050781 144.15625 C 551.984375 145.132812 541.015625 151.378906 541.203125 142.992188 C 541.339844 136.886719 551.972656 136.351562 558.050781 134.269531 C 558.050781 128.652344 558.050781 123.035156 558.050781 117.417969 C 553.6875 119.972656 541.019531 127.867188 541.203125 118.578125 C 541.328125 112.351562 553.003906 110.207031 558.050781 106.953125 C 558.050781 98.234375 558.050781 89.515625 558.050781 80.796875 C 469.371094 130.035156 381.65625 180.214844 293.707031 230.179688 C 305.902344 227.464844 316.925781 223.574219 329.144531 220.878906 C 330.953125 216.671875 342.144531 205.589844 347.734375 206.925781 " fill-opacity="1" fill-rule="nonzero"/><path fill="#2d2727" d="M 271.046875 448.148438 C 272.320312 437.421875 281.753906 430.320312 292.542969 437.683594 C 291.308594 428.265625 286.414062 422.5 285.574219 412.691406 C 295.476562 403.261719 299.34375 427.277344 301.839844 435.363281 C 303.613281 441.105469 311.003906 457.164062 303.003906 458.609375 C 297.285156 459.644531 279.050781 429.726562 280.34375 453.957031 C 280.589844 458.585938 290.324219 478.25 283.828125 480.117188 C 276.851562 482.121094 269.632812 460.097656 271.046875 448.148438 Z M 284.410156 391.765625 C 285.890625 397.757812 285.113281 405.824219 280.34375 406.296875 C 271.40625 407.191406 274.402344 383.765625 284.410156 391.765625 Z M 315.78125 488.253906 C 315.292969 494.261719 307.464844 493.542969 305.324219 488.253906 C 300.722656 495.660156 297.539062 504.488281 293.707031 512.667969 C 297.398438 513.167969 300.097656 511.214844 303.003906 512.667969 C 312.746094 522.683594 284.574219 525.976562 282.667969 516.734375 C 281.472656 510.941406 288.597656 501.933594 290.800781 496.972656 C 294.230469 489.246094 296.195312 483.980469 300.097656 478.375 C 295.542969 471.796875 298.917969 468.179688 301.839844 467.910156 C 305.808594 467.539062 316.050781 484.957031 315.78125 488.253906 Z M 282.085938 546.378906 C 290.222656 547.183594 282.929688 561.582031 280.34375 567.882812 C 277.710938 574.296875 274.660156 579.824219 272.792969 584.160156 C 281.070312 580.628906 287.628906 575.367188 296.03125 571.957031 C 299.546875 568.335938 302.15625 553.933594 308.8125 554.515625 C 312.699219 554.859375 313.5625 559.160156 312.296875 562.652344 C 323.058594 555.984375 335.066406 550.558594 345.414062 543.46875 C 341.492188 533.640625 339.792969 521.585938 335.539062 512.085938 C 336.722656 516.976562 325.363281 533.164062 322.753906 521.964844 C 321.019531 514.515625 331.351562 506.25 331.46875 496.390625 C 331.527344 491.621094 328.058594 485.070312 326.238281 478.953125 C 320.898438 460.980469 316.117188 440.886719 311.136719 426.058594 C 303.410156 425 307.300781 418.269531 307.070312 412.109375 C 306.816406 405.445312 302.808594 397.871094 300.679688 390.605469 C 298.375 382.746094 297.414062 374.902344 294.289062 369.097656 C 294.046875 373.371094 292.179688 376.519531 288.476562 376.070312 C 279.429688 374.976562 289.84375 359.042969 289.058594 348.753906 C 288.523438 341.71875 284.65625 336.660156 283.828125 332.480469 C 282.519531 339.449219 284.410156 353.722656 276.277344 352.238281 C 270.335938 351.15625 273.75 341.046875 274.535156 334.804688 C 275.511719 327.011719 276.515625 320.1875 276.277344 313.878906 C 275.761719 311.414062 278.960938 310.921875 277.4375 309.226562 C 274.296875 298.035156 271.519531 286.476562 267.5625 276.097656 C 267.40625 377.269531 265.042969 479.339844 265.238281 578.929688 C 267.972656 573.371094 269.335938 568.65625 272.210938 561.492188 C 273.804688 557.519531 276.828125 545.859375 282.085938 546.378906 " fill-opacity="1" fill-rule="nonzero"/><path fill="#2d2727" d="M 799.152344 601.601562 C 796.21875 605.402344 784.519531 607.351562 777.078125 609.15625 C 767.484375 611.484375 758.367188 614.167969 752.679688 613.222656 C 745.441406 599.960938 781.300781 601.457031 788.121094 596.367188 C 788.808594 595.257812 785.207031 593.484375 786.375 589.972656 C 792.320312 582.234375 803.925781 595.433594 799.152344 601.601562 Z M 750.355469 639.378906 C 744.894531 638.261719 737.761719 638.714844 733.503906 640.542969 C 734.003906 656.335938 723.03125 670.226562 704.453125 670.769531 C 692.269531 666.890625 701.046875 649.972656 706.199219 644.609375 C 716.507812 633.894531 741.542969 625.078125 756.164062 631.242188 C 758.808594 632.355469 762.769531 636.328125 763.136719 638.796875 C 764.929688 650.847656 751.898438 646.867188 750.355469 639.378906 Z M 819.488281 591.714844 C 813.128906 589.101562 820.429688 581.15625 822.976562 578.351562 C 813.96875 574.382812 806.695312 568.671875 797.414062 564.980469 C 793.820312 569.675781 792.195312 580.636719 785.792969 580.671875 C 773.921875 580.738281 789.351562 563.648438 789.277344 559.75 C 783.824219 557.261719 779.453125 553.691406 773.597656 551.609375 C 770.414062 554.238281 767.625 557.265625 765.460938 560.910156 C 768.160156 563.742188 772.210938 564.496094 771.851562 569.046875 C 771.199219 577.226562 762.09375 571.390625 758.492188 567.304688 C 748.40625 577.949219 738.261719 588.53125 728.277344 599.273438 C 741.75 603.113281 730.800781 616.761719 722.46875 606.25 C 715.75 610.570312 711.992188 617.851562 705.621094 622.519531 C 706.683594 625.46875 707.71875 627.074219 706.199219 630.078125 C 704.585938 631.199219 700.246094 631.960938 698.0625 630.660156 C 692.304688 637.875 685.300781 643.847656 679.476562 651.003906 C 694.503906 653.421875 681.164062 665.148438 671.34375 659.144531 C 667.363281 663.652344 661.542969 669.441406 657.394531 673.675781 C 656.113281 674.992188 653.429688 676.980469 654.492188 678.324219 C 669.273438 680.34375 654.199219 692.765625 644.617188 687.621094 C 639.625 692.808594 633.25 699.3125 628.347656 704.480469 C 626.882812 706.023438 624.078125 708.066406 624.863281 709.710938 C 629.257812 707.292969 637.027344 704.675781 637.644531 710.875 C 638.421875 718.664062 617.265625 721.398438 610.339844 723.660156 C 602.972656 732.179688 592.632812 740.820312 587.101562 749.234375 C 676.816406 698.335938 767.664062 648.558594 857.253906 597.527344 C 848.175781 593.246094 840.332031 587.722656 831.113281 583.578125 C 827.539062 586.101562 825.347656 594.125 819.488281 591.714844 " fill-opacity="1" fill-rule="nonzero"/><path fill="#2d2727" d="M 417.453125 659.144531 C 412.378906 659.570312 409.105469 658.195312 404.089844 658.558594 C 403.398438 660.964844 403.101562 663.769531 401.1875 664.957031 C 395.347656 664.917969 390.425781 663.847656 386.082031 660.886719 C 383.707031 659.265625 378.917969 654.890625 379.109375 652.167969 C 379.710938 643.699219 400.679688 651.085938 409.320312 649.84375 C 408.515625 647.910156 404.007812 639.390625 411.0625 638.796875 C 414.300781 638.527344 429.199219 656.59375 429.074219 659.722656 C 428.796875 666.546875 419.894531 664.613281 417.453125 659.144531 Z M 346.574219 628.914062 C 336.074219 620.824219 329.574219 603.179688 347.734375 599.855469 C 363.621094 596.945312 376.488281 601.710938 382.015625 609.15625 C 391.464844 621.886719 387.167969 635.273438 369.8125 635.890625 C 362.753906 636.144531 353.105469 633.953125 346.574219 628.914062 Z M 489.492188 714.363281 C 489.785156 708.808594 497.25 710.28125 502.855469 711.453125 C 498.730469 709.175781 492.390625 695.109375 485.425781 693.4375 C 478.257812 691.714844 462.625 697.308594 463.351562 688.207031 C 463.835938 682.148438 471.421875 684.34375 477.296875 684.71875 C 474.445312 680.398438 468.828125 673.816406 463.351562 670.1875 C 453.941406 677.140625 441.226562 662.664062 456.378906 662.628906 C 451.085938 655.523438 442.636719 646.542969 434.882812 639.964844 C 430.980469 640.375 428.417969 639.457031 427.328125 637.054688 C 426.761719 634.355469 428.082031 633.546875 428.492188 631.824219 C 418.730469 623.378906 411.445312 612.457031 401.1875 604.503906 C 399.175781 605.207031 396.828125 605.566406 394.214844 605.667969 C 390.640625 604.570312 389.132812 597.613281 394.214844 596.949219 C 387.367188 588.105469 379.375 580.410156 371.554688 572.535156 C 364.121094 583.058594 352.953125 569.460938 365.164062 566.144531 C 360.730469 560.699219 356.941406 554.609375 348.898438 552.773438 C 336.480469 559.722656 323.878906 566.492188 311.714844 573.699219 C 315.6875 577.738281 334.988281 578.691406 334.375 586.484375 C 333.703125 595.03125 320.847656 587.335938 315.78125 585.324219 C 311.488281 583.617188 305.5 579.796875 300.679688 580.09375 C 296.769531 580.328125 293.191406 583.964844 290.800781 585.324219 C 287.105469 587.425781 284.378906 587.851562 281.503906 591.140625 C 288.589844 595.328125 311.042969 597.5625 307.648438 607.992188 C 300.695312 610.527344 293.835938 605.992188 287.3125 603.34375 C 281.046875 600.792969 273.523438 595.316406 268.140625 598.109375 C 358.632812 647.65625 449.164062 700.273438 538.878906 748.652344 C 530.964844 740.105469 522.421875 732.179688 515.058594 723.082031 C 507.816406 720.910156 489.105469 721.808594 489.492188 714.363281 " fill-opacity="1" fill-rule="nonzero"/></svg>