<svg width="79" height="64" viewBox="0 0 79 64" fill="none" xmlns="http://www.w3.org/2000/svg">
<path d="M32.4943 61.1721C33.0906 61.4698 35.7736 56.1116 35.7736 56.1116L47.2509 32.7442C47.2509 32.5954 47.4 32.5954 47.4 32.4465L48.1453 31.5535L57.5358 12.6512L58.1321 11.4605L55.7472 10.2698L55.1509 11.6093L45.7604 30.5116L45.6113 31.7023C45.6113 31.8512 45.4623 31.8512 45.4623 32L33.9849 55.3675C33.9849 55.3675 31.3019 60.7256 32.0472 61.0233" fill="black"/>
<path d="M70.6528 5.20929L66.4792 8.93022C66.4792 8.93022 67.8207 11.3116 66.6283 13.5442C65.4358 15.7767 63.2 14.7349 63.2 14.7349L51.2755 8.93022C49.934 7.44185 51.1264 6.25115 51.1264 6.25115L43.8226 8.18603L46.8038 15.1814C46.8038 15.1814 47.1019 13.3953 49.0396 13.5442L60.9641 19.3488C60.9641 19.3488 63.349 20.5395 62.1566 22.7721C60.9641 25.0046 58.4302 25.4512 58.4302 25.4512L57.983 31.2558C57.983 31.2558 68.1189 29.1721 71.6962 21.8791C75.2736 14.586 70.6528 5.20929 70.6528 5.20929V5.20929Z" fill="black"/>
<path d="M58.4302 27.8326C61.5604 26.493 65.5849 23.9628 67.5226 19.7954C69.6094 15.6279 69.0132 11.014 68.2679 7.73954L70.5038 5.80466C71.3981 7.73954 74.2302 15.4791 71.2491 21.5814C68.2679 27.8326 60.2189 30.0651 58.2811 30.6605L58.4302 27.8326V27.8326Z" fill="white"/>
<path d="M70.3547 6.39999C71.3981 8.78138 73.634 15.7767 70.951 21.4325C68.1189 27.0884 61.2623 29.4698 58.7283 30.2139L58.8774 28.1302C62.0076 26.6418 66.0321 24.2605 67.9698 20.093C70.0566 15.9256 69.6094 11.3116 68.7151 7.88836L70.3547 6.39999M70.6528 5.20929L67.9698 7.59068C68.8642 10.8651 69.3113 15.6279 67.3736 19.6465C65.4359 23.6651 61.4113 26.1953 58.1321 27.5349L57.983 31.2558C57.983 31.2558 68.1189 29.1721 71.6962 21.8791C75.2736 14.4372 70.6528 5.20929 70.6528 5.20929V5.20929Z" fill="black"/>
<path d="M45.9095 61.1721C45.3132 61.4698 42.6302 56.1116 42.6302 56.1116L31.1529 32.7442C31.1529 32.5954 31.0038 32.5954 31.0038 32.4465L30.2585 31.5535L20.868 12.8L20.2717 11.4605L22.6566 10.2698L23.2529 11.6093L32.6434 30.5116L32.7925 31.7023C32.7925 31.8512 32.9415 31.8512 32.9415 32L44.4189 55.3675C44.4189 55.3675 47.1019 60.7256 46.3566 61.0233" fill="black"/>
<path d="M7.60191 5.20929L11.9246 8.93022C11.9246 8.93022 10.583 11.3116 11.7755 13.5442C12.9679 15.7767 15.2038 14.7349 15.2038 14.7349L27.1283 8.93022C28.4698 7.44185 27.2774 6.25115 27.2774 6.25115L34.5812 8.18603L31.6 15.1814C31.6 15.1814 31.3019 13.3953 29.3642 13.5442L17.4396 19.3488C17.4396 19.3488 15.0547 20.5395 16.2472 22.7721C17.4396 25.0046 19.9736 25.4512 19.9736 25.4512L20.2717 31.107C20.2717 31.107 10.1359 29.0232 6.55851 21.7302C2.98116 14.4372 7.60191 5.20929 7.60191 5.20929V5.20929Z" fill="black"/>
<path d="M19.9736 30.6605C17.8868 30.214 9.98678 27.8326 7.00565 21.5814C4.02452 15.4791 6.85659 7.73954 7.75093 5.80466L9.98678 7.73954C9.2415 11.014 8.64527 15.7767 10.7321 19.7954C12.8189 23.814 16.8434 26.3442 19.8245 27.8326L19.9736 30.6605Z" fill="white"/>
<path d="M7.9 6.39999L9.53962 7.73952C8.79434 11.0139 8.34717 15.7767 10.2849 19.9442C12.3717 24.1116 16.2472 26.6418 19.3774 27.9814L19.5264 30.0651C16.9925 29.3209 9.98679 26.9395 7.30378 21.2837C4.62076 15.9256 6.85661 8.93022 7.9 6.39999M7.60189 5.20929C7.60189 5.20929 2.98113 14.4372 6.70755 21.7302C10.2849 29.0232 20.4208 31.107 20.4208 31.107L20.2717 27.5349C17.1415 26.1953 13.117 23.6651 11.0302 19.6465C8.9434 15.6279 9.53962 11.0139 10.434 7.59068L7.60189 5.20929V5.20929Z" fill="black"/>
</svg>
