<svg width="426" height="290" viewBox="0 0 426 290" fill="none" xmlns="http://www.w3.org/2000/svg">
<path d="M175.407 276.396C178.608 277.739 192.997 253.538 192.997 253.538L254.552 147.993C254.551 147.32 255.351 147.32 255.351 146.648L259.349 142.614L309.713 57.2362L312.91 51.858L300.108 46.4868L296.911 52.537L246.547 137.915L245.75 143.292C245.75 143.964 244.95 143.964 244.95 144.636L183.396 250.181C183.396 250.181 169.006 274.383 173.007 275.725" fill="white"/>
<path d="M380.098 23.6012L357.705 40.4132C357.705 40.4132 364.91 51.1636 358.514 61.2477C352.119 71.3319 340.117 66.6324 340.117 66.6324L276.105 40.4484C268.902 33.7305 275.3 28.351 275.3 28.351L236.104 37.1051L252.118 68.6866C252.118 68.6866 253.714 60.6208 264.114 61.2884L328.126 87.4725C328.126 87.4725 340.928 92.8437 334.532 102.928C328.137 113.012 314.537 115.034 314.537 115.034L312.149 141.247C312.149 141.247 366.545 131.814 385.731 98.8732C404.916 65.9324 380.098 23.6012 380.098 23.6012Z" fill="white"/>
<path d="M314.542 125.788C331.339 119.732 352.935 108.297 363.326 89.4735C374.518 70.6501 371.309 49.8166 367.303 35.0323L379.299 26.2899C384.103 35.0251 399.318 69.9673 383.33 97.53C367.342 125.765 324.146 135.865 313.748 138.558L314.542 125.788Z" fill="white"/>
<path d="M378.5 28.9786C384.105 39.7297 396.119 71.3129 381.73 96.8586C366.541 122.405 329.745 133.174 316.147 136.54L316.943 127.131C333.74 120.403 355.335 109.64 365.727 90.8167C376.919 71.9933 374.51 51.1594 369.703 35.7033L378.5 28.9786ZM380.098 23.6012L365.703 34.3609C370.509 49.1449 372.918 70.6508 362.526 88.8018C352.134 106.953 330.539 118.388 312.942 124.444L312.149 141.247C312.149 141.247 366.545 131.814 385.731 98.8732C404.916 65.2603 380.098 23.6012 380.098 23.6012Z" fill="white"/>
<path d="M247.407 276.365C244.208 277.711 229.797 253.522 229.797 253.522L168.152 148.03C168.151 147.358 167.351 147.358 167.351 146.686L163.349 142.655L112.913 57.9931L109.71 51.9456L122.508 46.5633L125.711 52.6108L176.147 137.945L176.95 143.321C176.95 143.993 177.75 143.993 177.75 144.665L239.396 250.157C239.396 250.157 253.806 274.346 249.807 275.692" fill="white"/>
<path d="M41.6981 23.747L64.9054 40.5393C64.9054 40.5393 57.71 51.2959 64.1143 61.3746C70.5187 71.4532 82.5166 66.7434 82.5166 66.7434L146.505 40.5042C153.702 33.7801 147.3 28.4062 147.3 28.4062L186.504 37.1265L170.518 68.7217C170.518 68.7217 168.914 60.6573 158.514 61.3339L94.5256 87.5731C94.5256 87.5731 81.7279 92.9553 88.1323 103.034C94.5366 113.113 108.137 115.123 108.137 115.123L109.748 140.662C109.748 140.662 55.3445 131.276 36.1303 98.3517C16.9161 65.4275 41.6981 23.747 41.6981 23.747Z" fill="white"/>
<path d="M108.148 138.646C96.9468 136.635 54.5421 125.9 38.53 97.6786C22.5181 70.1297 37.703 35.1743 42.4993 26.435L54.503 35.1671C50.5094 49.9548 47.3187 71.4632 58.5265 89.6049C69.7343 107.747 91.3392 119.163 107.342 125.877L108.148 138.646Z" fill="white"/>
<path d="M43.3004 29.1231L52.1031 35.1681C48.1094 49.9559 45.7187 71.4639 56.1268 90.278C67.3349 109.092 88.1398 120.508 104.942 126.55L105.746 135.959C92.145 132.604 54.5404 121.867 40.1294 96.3337C25.719 72.1446 37.7054 40.5511 43.3004 29.1231ZM41.6981 23.747C41.6981 23.747 16.9161 65.4275 36.9303 98.3514C56.1445 131.276 110.549 140.662 110.549 140.662L109.742 124.532C92.939 118.49 71.334 107.074 60.1262 88.9321C48.9184 70.7904 52.1094 49.9542 56.9028 34.494L41.6981 23.747Z" fill="white"/>
</svg>
